<svg xmlns="http://www.w3.org/2000/svg" xmlns:xlink="http://www.w3.org/1999/xlink" version="1.1" x="0px" y="0px" viewBox="0 0 512 640" style="enable-background:new 0 0 512 512;" xml:space="preserve"><path d="M90.7,488V24h210.7l0.4,103.3c0,2.3,1,4.5,2.8,6c1.5,1.3,3.3,1.9,5.2,1.9c0.4,0,0.8,0,1.1-0.1l110.5-15.8V488H90.7z   M410.5,104.8l-92.8,13.2l-0.3-85.7L410.5,104.8z M314.3,9.7c-0.3-0.3-0.8-0.4-1.2-0.6c-0.3-0.2-0.6-0.4-0.9-0.5  c-0.9-0.4-1.9-0.6-2.9-0.6h0H82.7c-4.4,0-8,3.6-8,8v480c0,4.4,3.6,8,8,8h346.7c4.4,0,8-3.6,8-8V109.3c0-2.5-1.1-4.8-3.1-6.3  L314.3,9.7z"/><path d="M190.9,249.3c10.8,0,19.7-8.8,19.7-19.7c0-10.8-8.8-19.7-19.7-19.7c-10.8,0-19.7,8.8-19.7,19.7S180,249.3,190.9,249.3z"/><path d="M324.2,249.3c10.8,0,19.7-8.8,19.7-19.7c0-10.8-8.8-19.7-19.7-19.7c-10.9,0-19.7,8.8-19.7,19.7S313.3,249.3,324.2,249.3z"/><path d="M257.5,300.8c-56.8,0-103,46.2-103,103c0,4.4,3.6,8,8,8s8-3.6,8-8c0-48,39-87,87-87c48,0,87,39,87,87c0,4.4,3.6,8,8,8  s8-3.6,8-8C360.5,347,314.3,300.8,257.5,300.8z"/><text x="0" y="527" fill="#000000" font-size="5px" font-weight="bold" font-family="'Helvetica Neue', Helvetica, Arial-Unicode, Arial, Sans-serif">Created by purplestudio</text><text x="0" y="532" fill="#000000" font-size="5px" font-weight="bold" font-family="'Helvetica Neue', Helvetica, Arial-Unicode, Arial, Sans-serif">from the Noun Project</text></svg>